<svg width="22" height="22" fill="none" xmlns="http://www.w3.org/2000/svg"><g clip-path="url('#clip0_24_93')" fill="#66C05D"><path d="M15.125 0h-8.25A6.876 6.876 0 0 0 0 6.875v8.25A6.876 6.876 0 0 0 6.875 22h8.25A6.876 6.876 0 0 0 22 15.125v-8.25A6.876 6.876 0 0 0 15.125 0Zm4.813 15.125a4.818 4.818 0 0 1-4.813 4.813h-8.25a4.818 4.818 0 0 1-4.813-4.813v-8.25a4.818 4.818 0 0 1 4.813-4.813h8.25a4.818 4.818 0 0 1 4.813 4.813v8.25Z"/><path d="M11 5.5a5.5 5.5 0 1 0 0 11 5.5 5.5 0 0 0 0-11Zm0 8.938A3.442 3.442 0 0 1 7.562 11 3.441 3.441 0 0 1 11 7.562 3.441 3.441 0 0 1 14.438 11 3.442 3.442 0 0 1 11 14.438ZM16.913 5.82a.733.733 0 1 0 0-1.465.733.733 0 0 0 0 1.465Z"/></g><defs><clipPath id="clip0_24_93"><path fill="#fff" d="M0 0h22v22H0z"/></clipPath></defs></svg>