<svg width="80" height="80" fill="none" xmlns="http://www.w3.org/2000/svg"><g clip-path="url('#clip0_6_21')"><path d="M57.22 25.373 46.687 35.906l4.079 4.079L61.299 29.45l-4.079-4.078ZM35.91 46.706 25.375 57.24l4.078 4.078 10.534-10.533-4.079-4.078ZM50.517 18.706 39.984 29.239l4.078 4.078 10.534-10.533-4.079-4.078ZM29.235 40.01 18.703 50.545l4.079 4.078 10.533-10.533-4.079-4.078ZM22.758 25.373l-4.079 4.078 10.533 10.533 4.079-4.078-10.533-10.533ZM29.454 18.699l-4.078 4.078L35.909 33.31l4.078-4.078L29.454 18.7ZM50.76 39.98l-4.08 4.08 10.534 10.532 4.078-4.078L50.76 39.981ZM44.092 46.684l-4.078 4.078 10.533 10.533 4.078-4.078-10.533-10.533Z" fill="#66C05D"/><path d="m54.606 65.394-4.067-4.066L40 71.868l-10.54-10.54-4.066 4.066L40 80l14.606-14.606ZM18.672 29.46l-4.066-4.066L0 40l14.606 14.606 4.066-4.067L8.132 40l10.54-10.54ZM65.394 25.394l-4.066 4.067L71.868 40l-10.54 10.54 4.066 4.066L80 40 65.394 25.394ZM50.54 18.672l4.066-4.066L40 0 25.394 14.606l4.067 4.066L40 8.132l10.54 10.54Z" fill="#EFEFEF"/></g><defs><clipPath id="clip0_6_21"><path fill="#fff" d="M0 0h80v80H0z"/></clipPath></defs></svg>